<svg version="1.0" xmlns="http://www.w3.org/2000/svg" width="946.000000pt" height="396.000000pt" viewBox="0 0 946.000000 396.000000" preserveAspectRatio="xMidYMid meet">
  <g transform="translate(0.000000,396.000000) scale(0.100000,-0.100000)" fill="#666666" stroke="none">
    <path d="M2560 3486 c-145 -27 -229 -103 -291 -266 -19 -49 -19 -422 0 -505 15 -70 17 -75 66 -180 29 -63 144 -237 175 -265 3 -3 24 -27 45 -55 22 -27 42 -52 46 -55 3 -3 18 -23 34 -45 17 -22 33 -42 36 -45 23 -18 113 -150 134 -196 34 -74 49 -193 42 -331 -6 -134 -20 -165 -84 -189 -36 -14 -50 -15 -83 -5 -82 24 -100 92 -100 382 l0 209 -175 0 -175 0 0 -286 c0 -303 6 -353 52 -451 38 -81 145 -164 243 -189 44 -11 333 -9 380 2 112 28 209 108 263 216 51 101 62 169 62 386 0 203 -12 294 -51 379 -10 24 -19 46 -19 49 0 19 -158 241 -273 384 -7 8 -26 33 -42 55 -37 49 -53 69 -86 109 -108 131 -139 216 -139 381 0 124 10 166 45 189 33 22 117 21 144 -1 33 -27 40 -80 41 -285 l0 -188 175 0 175 0 0 240 c0 268 -6 309 -59 418 -32 66 -121 123 -223 142 -69 13 -278 11 -358 -4z"/>
    <path d="M360 2255 l0 -1225 413 2 412 3 3 177 2 178 -227 2 -228 3 -5 1040 -5 1040 -182 3 -183 2 0 -1225z"/>
    <path d="M1320 2255 l0 -1225 410 0 410 0 0 180 0 180 -227 2 -228 3 -5 1040 -5 1040 -177 3 -178 2 0 -1225z"/>
    <path d="M4005 3468 c-3 -7 -4 -557 -3 -1223 l3 -1210 182 -3 183 -2 2 507 3 508 155 6 c85 3 169 9 185 13 97 24 189 106 225 203 35 95 42 203 38 588 -4 316 -7 366 -23 410 -47 128 -105 177 -243 204 -80 16 -701 15 -707 -1z m533 -322 c41 -21 57 -46 70 -104 16 -71 16 -463 0 -534 -20 -91 -63 -121 -169 -116 l-64 3 -3 370 c-1 203 0 376 3 382 6 18 128 17 163 -1z"/>
    <path d="M6630 3049 c0 -247 -4 -429 -9 -427 -5 2 -30 29 -55 60 -79 97 -168 132 -291 113 -40 -5 -57 -15 -99 -58 -92 -94 -89 -70 -94 -762 -2 -373 1 -629 7 -676 17 -130 75 -226 160 -266 49 -24 168 -22 207 3 48 29 114 97 135 136 11 21 24 38 29 38 6 0 10 -38 10 -90 l0 -90 173 2 172 3 0 1220 0 1220 -172 3 -173 2 0 -431z m-52 -565 c52 -36 52 -35 52 -574 0 -524 1 -515 -44 -567 -14 -17 -30 -23 -61 -23 -45 0 -71 20 -93 73 -9 20 -12 161 -12 516 0 526 1 540 52 575 29 20 77 20 106 0z"/>
    <path d="M7426 3438 c-4 -24 -11 -78 -17 -120 -5 -43 -13 -113 -19 -155 -5 -43 -14 -116 -19 -163 -11 -92 -37 -299 -52 -420 -21 -166 -29 -229 -38 -310 -6 -47 -17 -141 -26 -210 -15 -117 -21 -166 -45 -363 -63 -505 -79 -650 -73 -660 2 -4 73 -7 157 -7 l154 0 11 118 c7 64 16 153 22 197 5 44 10 94 12 110 l2 30 143 3 c109 2 143 0 146 -10 7 -25 25 -155 36 -263 6 -60 13 -127 16 -147 l6 -38 169 0 169 0 0 44 c0 25 -4 66 -9 93 -10 48 -16 94 -46 333 -9 69 -18 141 -21 160 -3 19 -10 69 -15 110 -14 119 -19 151 -29 220 -5 36 -17 121 -25 190 -15 120 -27 213 -41 310 -3 25 -10 74 -14 110 -5 36 -13 99 -19 140 -23 173 -43 329 -51 395 -5 39 -14 106 -20 150 -5 44 -14 105 -18 135 l-7 55 -216 3 -216 2 -7 -42z m236 -789 c4 -41 12 -117 18 -169 6 -52 15 -133 20 -180 5 -47 12 -107 15 -135 32 -264 36 -308 23 -316 -7 -5 -53 -9 -101 -9 -67 0 -89 3 -93 14 -6 15 15 232 56 606 6 52 13 124 16 160 7 89 13 112 27 107 7 -2 15 -34 19 -78z"/>
    <path d="M8335 3468 c-3 -7 -4 -557 -3 -1223 l3 -1210 413 -3 412 -2 0 180 0 180 -232 2 -233 3 -3 1043 -2 1042 -175 0 c-131 0 -177 -3 -180 -12z"/>
    <path d="M5362 2805 c-49 -11 -99 -32 -112 -45 -3 -3 -21 -17 -42 -32 -43 -33 -69 -73 -97 -154 -21 -60 -21 -70 -18 -670 2 -404 6 -621 14 -646 19 -66 55 -129 94 -166 35 -34 51 -44 131 -82 37 -18 289 -18 343 0 73 24 109 45 155 90 91 90 120 202 120 468 l0 172 -165 0 -165 0 0 -159 c0 -165 -6 -200 -42 -238 -28 -30 -95 -32 -126 -3 -36 34 -43 86 -40 312 l3 213 268 3 267 2 0 273 c0 308 -12 405 -60 502 -45 93 -99 133 -215 160 -79 18 -239 18 -313 0z m224 -290 c34 -22 44 -74 44 -221 0 -111 -3 -133 -16 -138 -20 -8 -168 -8 -188 0 -14 5 -16 27 -15 143 0 81 6 150 13 171 22 63 101 85 162 45z"/>
  </g>
  <g transform="translate(0.000000,396.000000) scale(0.100000,-0.100000)" fill="#CC0000" stroke="none">
    <path d="M362 358 l3 -233 4396 -3 c3510 -2 4398 1 4406 10 6 8 7 99 4 233 l-6 220 -4403 3 -4402 2 2 -232z"/>
  </g>
</svg>